<svg id="Layer_1" data-name="Layer 1" xmlns="http://www.w3.org/2000/svg" viewBox="0 0 742.46 394.78"><defs><style>.cls-1{fill:#fff;}.cls-2{fill:#838bc5;}.cls-3{fill:#009245;}</style></defs><title>logo_dark</title><polygon class="cls-1" points="594.88 76.94 594.88 76.95 538.29 126.02 538.29 125.91 228.27 394.78 139.55 394.78 594.75 0 594.88 76.94"/><polygon class="cls-1" points="455.33 76.94 455.33 76.95 398.74 126.02 398.74 125.91 88.72 394.78 0 394.78 455.2 0 455.33 76.94"/><polygon class="cls-2" points="595.09 203.31 595.09 204.19 538.5 253.27 538.41 203.31 538.41 202.85 538.36 176.43 594.96 127.36 595 153.78 595.09 203.31"/><polygon class="cls-1" points="683.81 127.25 627.22 176.32 627.14 125.91 595 153.78 538.42 202.85 538.42 202.86 317.12 394.78 286.61 394.78 538.37 176.43 594.96 127.36 683.68 50.41 683.81 127.25"/><path class="cls-3" d="M823.5,662.51H766.82L766.59,521l-.08-50-.13-77.4L764.85,395l-56.59,49.07-31.12,27-1,.88L619.54,521,456.37,662.51H367.64L619.4,444.16,676,395.09l88.71-76.95L803,284.91a12,12,0,0,1,19.86,9Z" transform="translate(-81.04 -267.73)"/><polygon class="cls-3" points="596.1 203.31 595.09 204.19 538.5 253.27 538.36 253.27 538.36 203.31 596.1 203.31"/><polygon class="cls-3" points="709.94 203.31 709.94 253.27 685.55 253.27 685.47 203.31 709.94 203.31"/></svg>